<?xml version="1.0" standalone="no"?>
<!DOCTYPE svg PUBLIC "-//W3C//DTD SVG 20010904//EN"
 "http://www.w3.org/TR/2001/REC-SVG-20010904/DTD/svg10.dtd">
<svg version="1.0" xmlns="http://www.w3.org/2000/svg"
 width="500.000000pt" height="500.000000pt" viewBox="0 0 500.000000 500.000000"
 preserveAspectRatio="xMidYMid meet">
<metadata>
Created by potrace 1.14, written by Peter Selinger 2001-2017
</metadata>
<g transform="translate(0.000000,500.000000) scale(0.100000,-0.100000)"
fill="#000000" stroke="none">
<path d="M827 4984 c-208 -37 -383 -129 -532 -279 -129 -129 -214 -275 -264
-454 l-26 -96 0 -1655 0 -1655 26 -96 c50 -179 135 -325 264 -454 152 -153
325 -242 540 -280 132 -23 3198 -23 3330 0 215 38 388 127 540 280 129 129
214 275 264 454 l26 96 0 1655 0 1655 -26 96 c-50 179 -135 325 -264 454 -152
153 -325 242 -540 280 -126 22 -3216 21 -3338 -1z m2920 -799 c13 -9 29 -28
35 -43 8 -20 11 -457 9 -1632 -2 -1757 2 -1650 -59 -1650 -15 0 -39 8 -52 17
-27 19 -174 142 -285 239 -38 33 -92 76 -119 94 -27 18 -103 80 -170 137 -66
58 -155 130 -196 161 -41 30 -98 76 -126 101 -102 93 -203 172 -233 182 -33
12 -84 0 -131 -30 -37 -23 -179 -138 -220 -177 -19 -18 -58 -50 -86 -71 -76
-56 -192 -151 -249 -203 -27 -26 -93 -79 -146 -118 -53 -39 -126 -98 -162
-131 -157 -143 -247 -211 -277 -211 -64 0 -60 -106 -60 1662 0 1506 1 1605 18
1638 9 19 26 39 38 45 13 7 429 9 1234 8 1085 -2 1215 -4 1237 -18z"/>
<path d="M1635 3880 c-125 -7 -157 -19 -180 -65 -21 -46 -21 -205 1 -251 25
-52 56 -63 201 -70 147 -6 182 4 218 66 29 50 28 211 -1 261 -34 58 -73 68
-239 59z"/>
<path d="M2332 3860 c-45 -27 -64 -78 -65 -170 -1 -56 4 -85 18 -114 34 -68
56 -77 198 -83 137 -5 180 3 216 40 31 34 44 119 32 214 -8 68 -13 81 -40 105
-31 28 -32 28 -179 28 -130 0 -151 -2 -180 -20z"/>
<path d="M3155 3847 c-32 -32 -55 -101 -55 -166 0 -49 31 -129 62 -158 l30
-28 144 2 c156 2 183 9 218 56 18 25 21 43 21 136 0 174 -22 191 -246 191
l-141 0 -33 -33z"/>
</g>
</svg>
